# xmcd
#
# Track frame offsets: 
#        193
#        5158
#        28620
#        47785
#        58555
#        83825
#        90765
#        96995
#        112860
#        118040
#        127760
#        148875
#        163303
#        184428
#        194555
#        215400
#        220928
#        227385
#        250225
#        261638
#        287073
#        291793
#        310735
#        323660
#
# Disc length: 4579 seconds
#
# Revision: 1
# Processed by: cddbd v1.5.2PL0 Copyright (c) Steve Scherf et al.
# Submitted via: ExactAudioCopy v0.99pb5
#
DISCID=6311e118
DTITLE=Dirko Juchem - Improvisation in der Popmusik
DYEAR=1992
DGENRE=Jazz
TTITLE0=Stimmton A und Bb
TTITLE1=First Tune - Rock (Melodie) - Uebungen 1-14
TTITLE2=First Tune - Rock (Playback)
TTITLE3=Banana Lady - Jazz-Rock (Melodie) - Uebungen 15-19
TTITLE4=Banana Lady - Jazz-Rock (Playback)
TTITLE5=Uebungen 20-25
TTITLE6=Licks 1-5
TTITLE7=Brown Machin - Soul (Playback)
TTITLE8=Licks 6-9
TTITLE9=I'll Be Here - Rock-Blues (Melodie) - Licks 10-17
TTITLE10=I'll Be Here - Rock-Blues (Playback))
TTITLE11=Got No Time - Slow Blues (Melodie) - Melodische Beispiele 1-4
TTITLE12=Banana Lady - Jazz-Rock (Playback)
TTITLE13=Luna Dance (Melodie) - Licks 18-23
TTITLE14=Luna Dance (Playback)
TTITLE15=Licks 24-29
TTITLE16=Don't Stop - Hard Rock (Melodie)
TTITLE17=Don't Stop - Hard Rock (Playback)
TTITLE18=Release - Rockballade (Melodie)
TTITLE19=Release - Rockballade (Playback)
TTITLE20=Change Your Rhythm - Jazz (Melodie)
TTITLE21=Change Your Rhythm - Jazz (Playback)
TTITLE22=Dizzy Old Sun - Reggae (Melodie) - Licks 30-35
TTITLE23=Dizzy Old Sun - Reggae (Playback)
EXTD=YEAR: 1992
EXTT0=
EXTT1=
EXTT2=
EXTT3=
EXTT4=
EXTT5=
EXTT6=
EXTT7=
EXTT8=
EXTT9=
EXTT10=
EXTT11=
EXTT12=
EXTT13=
EXTT14=
EXTT15=
EXTT16=
EXTT17=
EXTT18=
EXTT19=
EXTT20=
EXTT21=
EXTT22=
EXTT23=
PLAYORDER=
